<svg xmlns="http://www.w3.org/2000/svg" version="1.1" xmlns:xlink="http://www.w3.org/1999/xlink" xmlns:svgjs="http://svgjs.dev/svgjs" width="1500" height="1500" viewBox="0 0 1500 1500"><rect width="1500" height="1500" fill="#ececea"></rect><g transform="matrix(0.6666666666666666,0,0,0.6666666666666666,249.39393939393938,435.99032258064517)"><svg viewBox="0 0 396 248" data-background-color="#ececea" preserveAspectRatio="xMidYMid meet" height="939" width="1500" xmlns="http://www.w3.org/2000/svg" xmlns:xlink="http://www.w3.org/1999/xlink"><g id="tight-bounds" transform="matrix(1,0,0,1,0.2400000000000091,0.4000000000000057)"><svg viewBox="0 0 395.52 247.2" height="247.2" width="395.52"><g><svg></svg></g><g><svg viewBox="0 0 395.52 247.2" height="247.2" width="395.52"><g transform="matrix(1,0,0,1,64.97456842105262,37.08)"><svg viewBox="0 0 265.57086315789473 173.04" height="173.04" width="265.57086315789473"><g><svg viewBox="0 0 265.57086315789473 173.04" height="173.04" width="265.57086315789473"><g><svg viewBox="0 0 265.57086315789473 173.04" height="173.04" width="265.57086315789473"><g><svg viewBox="0 0 265.57086315789473 173.04" height="173.04" width="265.57086315789473"><g id="textblocktransform"><svg viewBox="0 0 265.57086315789473 173.04" height="173.04" width="265.57086315789473" id="textblock"><g><svg viewBox="0 0 265.57086315789473 173.04" height="173.04" width="265.57086315789473"><g transform="matrix(1,0,0,1,0,0)"><svg width="265.57086315789473" viewBox="1.98 -34.79 53.39 34.79" height="173.04" data-palette-color="#009b7d"><path d="M11.13 0L11.13 0 2.17 0Q1.98 0 1.98-0.24L1.98-0.24 2.08-34.59Q2.08-34.79 2.27-34.79L2.27-34.79 11.89-34.79Q14.7-34.79 16.99-33.42L16.99-33.42Q19.24-32.06 20.53-29.8 21.83-27.54 21.83-24.9L21.83-24.9Q21.83-22.75 20.85-20.9 19.87-19.04 18.53-17.9L18.53-17.9Q19.97-16.46 20.78-14.55 21.58-12.65 21.58-10.55L21.58-10.55Q21.58-7.64 20.19-5.25L20.19-5.25Q18.77-2.86 16.41-1.43 14.04 0 11.13 0ZM11.89-28.86L11.89-28.86 8.08-28.86 8.08-21 11.89-21Q13.62-21 14.7-22.23 15.77-23.46 15.77-24.9L15.77-24.9Q15.77-26.49 14.62-27.67 13.48-28.86 11.89-28.86ZM11.13-14.94L11.13-14.94 8.08-14.94 8.03-6.1 11.13-6.1Q12.94-6.1 14.23-7.42 15.53-8.74 15.53-10.55L15.53-10.55Q15.53-12.35 14.23-13.65 12.94-14.94 11.13-14.94ZM31.03 0L31.03 0 25.36 0Q25.17 0 25.17-0.24L25.17-0.24 25.27-34.59Q25.27-34.79 25.46-34.79L25.46-34.79 35.57-34.79Q38.28-34.79 40.55-33.47L40.55-33.47Q42.82-32.15 44.17-29.93 45.53-27.71 45.53-24.9L45.53-24.9Q45.53-23.07 44.97-21.58L44.97-21.58Q44.41-20.09 43.66-19.07 42.92-18.04 42.31-17.55L42.31-17.55Q45.02-14.55 45.02-10.5L45.02-10.5 45.07-0.24Q45.07 0 44.82 0L44.82 0 39.16 0Q38.96 0 38.96-0.15L38.96-0.15 38.96-10.5Q38.96-12.3 37.69-13.62 36.42-14.94 34.57-14.94L34.57-14.94 31.27-14.94 31.22-0.24Q31.22 0 31.03 0ZM35.57-28.81L35.57-28.81 31.27-28.81 31.27-20.95 35.57-20.95Q37.11-20.95 38.32-22.09 39.52-23.24 39.52-24.9L39.52-24.9Q39.52-26.49 38.35-27.65 37.18-28.81 35.57-28.81ZM55.17 0L55.17 0 49.51 0Q49.26 0 49.26-0.24L49.26-0.24 49.31-34.59Q49.31-34.79 49.51-34.79L49.51-34.79 55.12-34.79Q55.32-34.79 55.32-34.59L55.32-34.59 55.37-0.24Q55.37 0 55.17 0Z" opacity="1" transform="matrix(1,0,0,1,0,0)" fill="#009b7d" class="wordmark-text-0" data-fill-palette-color="primary" id="text-0"></path></svg></g></svg></g></svg></g></svg></g><g></g></svg></g></svg></g></svg></g><g><path d="M0 247.2v-247.2h395.52v247.2zM379.915 231.595v-215.99h-364.31v215.99z" fill="#009b7d" fill-rule="nonzero" stroke="none" stroke-width="1" stroke-linecap="butt" stroke-linejoin="miter" stroke-miterlimit="10" stroke-dasharray="" stroke-dashoffset="0" font-family="none" font-weight="none" font-size="none" text-anchor="none" style="mix-blend-mode: normal" data-fill-palette-color="tertiary"></path></g></svg></g><defs></defs></svg><rect width="395.52" height="247.2" fill="none" stroke="none" visibility="hidden"></rect></g></svg></g></svg>